<?xml version="1.0" encoding="utf-8"?>
<!-- Generator: Adobe Illustrator 17.1.0, SVG Export Plug-In . SVG Version: 6.00 Build 0)  -->
<!DOCTYPE svg PUBLIC "-//W3C//DTD SVG 1.1//EN" "http://www.w3.org/Graphics/SVG/1.1/DTD/svg11.dtd">
<svg version="1.1" id="Layer_1" xmlns="http://www.w3.org/2000/svg" xmlns:xlink="http://www.w3.org/1999/xlink" x="0px" y="0px"
	 viewBox="0 0 48 48" enable-background="new 0 0 48 48" xml:space="preserve">
<g>
	<path id="path1" fill="#FFFFFF" d="M11.8,28.3c0.4,0,0.8,0.4,0.8,0.8v3.1c0,1.7,1.3,3.1,2.9,3.1h17c1.6,0,2.9-1.4,2.9-3.1v-3.1
		c0-0.4,0.4-0.8,0.8-0.8c0.4,0,0.8,0.4,0.8,0.8v3.1c0,2.6-2,4.8-4.5,4.8h-17C13,37,11,34.9,11,32.2v-3.1
		C11,28.7,11.4,28.3,11.8,28.3z M24.1,13l-6.3,7h1.3c0.7,0,1.6,0.3,1.6,2v5.6c0,0.3,0.2,0.5,0.3,0.5h5.8c0.2,0,0.3-0.2,0.3-0.5v-5.7
		c0-1.6,0.9-1.9,1.7-1.9h1.4L24.1,13z M24.1,11L24.1,11c0.3,0,0.5,0.1,0.7,0.3l7.8,8.7c0.2,0.3,0.3,0.7,0.2,1
		c-0.2,0.3-0.5,0.6-0.9,0.6h-2.9c0,0,0,0,0,0c0,0.1,0,0.1,0,0.3v5.7c0,1.2-0.9,2.2-2,2.2h-5.8c-1.1,0-2-1-2-2.2v-5.6
		c0-0.2,0-0.3,0-0.3h-2.8c-0.4,0-0.7-0.2-0.9-0.6c-0.2-0.3-0.1-0.7,0.2-1l7.8-8.7C23.6,11.1,23.8,11,24.1,11z"/>
</g>
</svg>
