<?xml version="1.0" encoding="utf-8"?>
<svg xmlns="http://www.w3.org/2000/svg" height="48" width="48" viewBox="0 0 48 48">
  <g>
    <path id="path1" transform="rotate(0,24,24) translate(11.0008174268369,11) scale(0.812449443506061,0.812449443506061)  " fill="#FFFFFF" d="M20.363963,2.0000044C15.050976,2.0000043 10.727978,6.2949964 10.727978,11.573999 10.727978,16.85404 15.050976,21.147995 20.363963,21.147995 25.676981,21.147995 29.999979,16.85404 29.999979,11.573999 29.999979,6.2949964 25.676981,2.0000043 20.363963,2.0000044z M20.363963,0C26.779978,0 31.999979,5.1919667 31.999979,11.573999 31.999979,17.956031 26.779978,23.147998 20.363963,23.147998 17.65722,23.147998 15.163336,22.22394 13.184453,20.676304L12.9726,20.506511 1.4100003,32.001993 0,30.583994 11.540372,19.110611 11.388429,18.931938C9.7271191,16.930492 8.7279784,14.366138 8.7279784,11.573999 8.7279784,5.1919667 13.947979,0 20.363963,0z" />
  </g>
</svg>

