<?xml version="1.0" encoding="utf-8"?>
<!-- Generator: Adobe Illustrator 17.1.0, SVG Export Plug-In . SVG Version: 6.00 Build 0)  -->
<!DOCTYPE svg PUBLIC "-//W3C//DTD SVG 1.1//EN" "http://www.w3.org/Graphics/SVG/1.1/DTD/svg11.dtd">
<svg version="1.1" id="Layer_1" xmlns="http://www.w3.org/2000/svg" xmlns:xlink="http://www.w3.org/1999/xlink" x="0px" y="0px"
	 viewBox="0 0 48 48" enable-background="new 0 0 48 48" xml:space="preserve">
<g>
	<path id="path1" fill="#FFFFFF" d="M35.2,24l-7-6.3v1.3c0,0.7-0.3,1.6-2,1.6h-5.6c-0.3,0-0.5,0.2-0.5,0.3v5.8
		c0,0.2,0.2,0.3,0.5,0.3h5.7c1.6,0,1.9,0.9,1.9,1.7v1.4L35.2,24z M37.2,24L37.2,24c0,0.3-0.1,0.5-0.3,0.7l-8.7,7.8
		c-0.3,0.2-0.7,0.3-1,0.2c-0.3-0.2-0.6-0.5-0.6-0.9v-2.9c0,0,0,0,0,0c-0.1,0-0.1,0-0.3,0h-5.7c-1.2,0-2.2-0.9-2.2-2V21
		c0-1.1,1-2,2.2-2h5.6c0.2,0,0.3,0,0.3,0v-2.8c0-0.4,0.2-0.7,0.6-0.9c0.3-0.2,0.7-0.1,1,0.2l8.7,7.8C37.1,23.5,37.2,23.7,37.2,24z"
		/>
</g>
<line fill="none" stroke="#FFFFFF" stroke-width="2" stroke-linecap="round" stroke-miterlimit="10" x1="15.9" y1="27.7" x2="15.9" y2="20.3"/>
<line fill="none" stroke="#FFFFFF" stroke-width="2" stroke-linecap="round" stroke-miterlimit="10" x1="13.4" y1="27.7" x2="13.4" y2="20.3"/>
<line fill="none" stroke="#FFFFFF" stroke-width="2" stroke-linecap="round" stroke-miterlimit="10" x1="10.8" y1="27.7" x2="10.8" y2="20.3"/>
</svg>
